<svg xmlns="http://www.w3.org/2000/svg" viewBox="0 0 1890 804.76"><defs><style>.a{fill:#3c5f77;}.b{fill:#6b9e2a;}.c{font-size:427.67px;font-family:HarabaraMaisBold-HarabaraMaisBold, Harabara Mais Demo;font-weight:700;}.c,.e{fill:#2e4149;}.d{letter-spacing:0.05em;}</style></defs><title>FT Logo</title><path class="a" d="M289,27H174.37A99.37,99.37,0,0,0,75,126.4V241.06H191.64A97.39,97.39,0,0,0,289,143.67Z" transform="translate(-75 40.25)"/><path class="a" d="M547.9,285.9H431.26a97.39,97.39,0,0,0-97.39,97.39v19.24a97.39,97.39,0,0,0,97.39,97.4H547.9Z" transform="translate(-75 40.25)"/><path class="a" d="M191.64,544.76H75V659.42a99.37,99.37,0,0,0,99.37,99.37H289V642.16A97.39,97.39,0,0,0,191.64,544.76Z" transform="translate(-75 40.25)"/><path class="b" d="M347.18,254.8c24.92-21.56,70.12-16,76.32-15.16a108.22,108.22,0,0,0,17.38,1.42h0a107,107,0,0,0,107-107h0a107,107,0,0,0-107-107h0a107,107,0,0,0-107,107h0A107.75,107.75,0,0,0,336,155.52h0s5.57,45.74-17.36,73.31-43,43.22-43,43.22c-26.05,22.54-74.67,15.5-77.36,15.09h0l-.1,0h0A106.75,106.75,0,0,0,182,285.9h0a107,107,0,0,0-107,107h0a107,107,0,0,0,107,107h0a107.16,107.16,0,0,0,22.95-2.5c9.16-.76,47.58-2.61,71.73,17.47,27.57,22.94,43.23,43,43.23,43,23.19,26.8,15.25,77.18,15.25,77.18h0a107.21,107.21,0,0,0-1.31,16.73h0a107,107,0,0,0,107,107h0a107,107,0,0,0,107-107h0a107,107,0,0,0-107-107h0c-7.33,0-21.22,1.86-21.22,1.86s-46.17,5.66-73.74-17.27-43.23-43-43.23-43c-20-23.1-16.7-63.55-15.41-74.27a107.45,107.45,0,0,0,1.75-19.2h0a107.42,107.42,0,0,0-2.1-21.14h0S281.28,325.6,304.21,298,347.18,254.8,347.18,254.8Zm93.7-190.41a69.66,69.66,0,1,1-69.65,69.66A69.74,69.74,0,0,1,440.88,64.39Zm0,517.73a69.66,69.66,0,1,1-69.65,69.66A69.74,69.74,0,0,1,440.88,582.12ZM182,462.57a69.66,69.66,0,1,1,69.65-69.66A69.74,69.74,0,0,1,182,462.57Z" transform="translate(-75 40.25)"/><text class="c" transform="translate(511.2 359.24)">FITTE<tspan class="d" x="1083.7" y="0">D</tspan></text><path class="e" d="M642.25,374.38h256v68.41H789V758.86H713.46V442.79H604.2V415.65C604.2,393.6,621.05,374.38,642.25,374.38Z" transform="translate(-75 40.25)"/><path class="e" d="M935.23,415.65c0-26.57,12.51-40.71,38.06-41.27h229.39V441.1h-193v82.55h144v25.44c.55,26.57-12.5,39.58-39.13,39.58H1009.71v99.51h193v70.68H935.23Z" transform="translate(-75 40.25)"/><path class="e" d="M1406.52,764.51c-113.61,0-170.14-78-170.14-197.89,0-123.83,59.79-198.46,176.66-198.46,45.11,0,81.53,11.31,109.25,35,26.1,24.32,40.77,57.67,44.58,99.51h-45.66c-16.31,0-28.27-7.91-35.34-23.18-12.49-27.7-37-41.84-72.83-41.84-70.13,0-101.11,51.46-101.11,128.92,0,75.2,29.9,128.35,98.93,128.35,47.29,0,74.47-27.14,82.63-69.55h73.38C1559.8,714.19,1500,764.51,1406.52,764.51Z" transform="translate(-75 40.25)"/><path class="e" d="M1641.34,374.38h38.59V518h151.66V374.38h76.65V703.16a55.71,55.71,0,0,1-55.71,55.7h-20.94V588.67H1679.93V758.86h-76.64V415.65C1603.29,393.6,1620.14,374.38,1641.34,374.38Z" transform="translate(-75 40.25)"/></svg>