<svg xmlns="http://www.w3.org/2000/svg" viewBox="0 0 1661.64 1793.64"><defs><style>.a{fill:#3c5f77;}.b{fill:#6b9e2a;}.c{font-size:436.41px;fill:#2e4149;font-family:HarabaraMaisBold-HarabaraMaisBold, Harabara Mais Demo;font-weight:700;}</style></defs><title>Image</title><path class="a" d="M390.79,625.48h-117a101.4,101.4,0,0,0-101.4,101.4v117h119a99.38,99.38,0,0,0,99.38-99.39Z" transform="translate(-172.39 -103.56)"/><path class="a" d="M655,889.64h-119A99.38,99.38,0,0,0,436.54,989v19.63A99.39,99.39,0,0,0,535.93,1108H655Z" transform="translate(-172.39 -103.56)"/><path class="a" d="M291.41,1153.79h-119v117a101.4,101.4,0,0,0,101.4,101.41h117v-119A99.38,99.38,0,0,0,291.41,1153.79Z" transform="translate(-172.39 -103.56)"/><path class="b" d="M450.13,857.91c25.43-22,71.55-16.38,77.88-15.48a110.21,110.21,0,0,0,17.74,1.46h0A109.21,109.21,0,0,0,655,734.68h0a109.2,109.2,0,0,0-109.2-109.2h0a109.2,109.2,0,0,0-109.21,109.2h0a109.79,109.79,0,0,0,2.2,21.91h0s5.68,46.67-17.72,74.8-43.84,44.11-43.84,44.11c-26.58,23-76.19,15.82-78.94,15.4h-.13a109.72,109.72,0,0,0-16.52-1.24h0a109.2,109.2,0,0,0-109.2,109.2h0A109.2,109.2,0,0,0,281.59,1108h0A109.49,109.49,0,0,0,305,1105.5c9.35-.79,48.56-2.68,73.2,17.82,28.14,23.4,44.11,43.84,44.11,43.84,23.66,27.35,15.56,78.76,15.56,78.76h0a110.35,110.35,0,0,0-1.34,17.07h0A109.21,109.21,0,0,0,545.75,1372.2h0A109.21,109.21,0,0,0,655,1263h0a109.2,109.2,0,0,0-109.2-109.2h0c-7.49,0-21.66,1.9-21.66,1.9s-47.12,5.77-75.25-17.63-44.11-43.84-44.11-43.84c-20.4-23.57-17-64.85-15.72-75.8a109.77,109.77,0,0,0,1.78-19.58h0a109.6,109.6,0,0,0-2.14-21.58h0s-5.78-47.12,17.62-75.26S450.13,857.91,450.13,857.91Zm95.62-194.3a71.08,71.08,0,1,1-71.08,71.07A71.15,71.15,0,0,1,545.75,663.61Zm0,528.3A71.08,71.08,0,1,1,474.67,1263,71.16,71.16,0,0,1,545.75,1191.91Zm-264.16-122a71.08,71.08,0,1,1,71.08-71.08A71.17,71.17,0,0,1,281.59,1069.92Z" transform="translate(-172.39 -103.56)"/><path class="a" d="M1375,322V205a101.4,101.4,0,0,0-101.41-101.4h-117v119A99.38,99.38,0,0,0,1256,322Z" transform="translate(-172.39 -103.56)"/><path class="a" d="M1110.87,586.12v-119a99.39,99.39,0,0,0-99.39-99.39H991.85a99.38,99.38,0,0,0-99.38,99.39v119Z" transform="translate(-172.39 -103.56)"/><path class="a" d="M846.72,222.58v-119h-117A101.4,101.4,0,0,0,628.31,205V322h119A99.38,99.38,0,0,0,846.72,222.58Z" transform="translate(-172.39 -103.56)"/><path class="b" d="M1142.6,381.3c22,25.43,16.37,71.55,15.48,77.88a109.08,109.08,0,0,0-1.46,17.74h0a109.2,109.2,0,0,0,109.2,109.2h0A109.21,109.21,0,0,0,1375,476.92h0a109.21,109.21,0,0,0-109.21-109.21h0a109.86,109.86,0,0,0-21.91,2.2h0s-46.67,5.68-74.8-17.72S1125,308.35,1125,308.35c-23-26.58-15.82-76.19-15.4-78.94v0l0-.09h0a111,111,0,0,0,1.24-16.52h0a109.2,109.2,0,0,0-109.2-109.2h0a109.2,109.2,0,0,0-109.2,109.2h0A109.49,109.49,0,0,0,895,236.18c.78,9.35,2.67,48.56-17.83,73.2-23.4,28.14-43.84,44.11-43.84,44.11-27.34,23.66-78.75,15.56-78.75,15.56h0a110.58,110.58,0,0,0-17.08-1.34h0a109.2,109.2,0,0,0-109.2,109.21h0a109.2,109.2,0,0,0,109.2,109.2h0a109.21,109.21,0,0,0,109.21-109.2h0c0-7.49-1.9-21.66-1.9-21.66S839,408.14,862.44,380s43.85-44.11,43.85-44.11c23.57-20.4,64.85-17,75.79-15.72a110,110,0,0,0,19.59,1.78h0a109.43,109.43,0,0,0,21.57-2.14h0s47.12-5.78,75.25,17.62S1142.6,381.3,1142.6,381.3Zm194.3,95.62a71.08,71.08,0,1,1-71.08-71.08A71.15,71.15,0,0,1,1336.9,476.92Zm-528.31,0a71.08,71.08,0,1,1-71.08-71.08A71.15,71.15,0,0,1,808.59,476.92Zm122-264.16a71.08,71.08,0,1,1,71.08,71.08A71.17,71.17,0,0,1,930.59,212.76Z" transform="translate(-172.39 -103.56)"/><path class="a" d="M1615.62,1375.27h117A101.4,101.4,0,0,0,1834,1273.87v-117H1715a99.38,99.38,0,0,0-99.39,99.38Z" transform="translate(-172.39 -103.56)"/><path class="a" d="M1351.47,1111.12h119a99.39,99.39,0,0,0,99.39-99.39V992.1a99.39,99.39,0,0,0-99.39-99.39h-119Z" transform="translate(-172.39 -103.56)"/><path class="a" d="M1715,847h119V730a101.4,101.4,0,0,0-101.41-101.4h-117v119A99.38,99.38,0,0,0,1715,847Z" transform="translate(-172.39 -103.56)"/><path class="b" d="M1556.29,1142.84c-25.44,22-71.56,16.38-77.89,15.48a110.18,110.18,0,0,0-17.73-1.45h0a109.2,109.2,0,0,0-109.2,109.2h0a109.2,109.2,0,0,0,109.2,109.2h0a109.2,109.2,0,0,0,109.2-109.2h0a109.86,109.86,0,0,0-2.2-21.91h0s-5.68-46.67,17.72-74.81,43.84-44.1,43.84-44.1c26.58-23,76.2-15.82,78.94-15.4h0l.1,0h0a109.82,109.82,0,0,0,16.52,1.25h0A109.21,109.21,0,0,0,1834,1001.92h0a109.21,109.21,0,0,0-109.21-109.21h0a109.56,109.56,0,0,0-23.42,2.55c-9.35.78-48.56,2.67-73.2-17.83-28.13-23.4-44.11-43.84-44.11-43.84-23.66-27.35-15.56-78.76-15.56-78.76h0a109.35,109.35,0,0,0,1.34-17.08h0a109.2,109.2,0,0,0-109.2-109.2h0a109.2,109.2,0,0,0-109.2,109.2h0A109.2,109.2,0,0,0,1460.67,847h0c7.48,0,21.65-1.9,21.65-1.9s47.12-5.77,75.26,17.63,44.1,43.84,44.1,43.84c20.4,23.58,17,64.85,15.73,75.8a109,109,0,0,0-1.79,19.59h0a109.5,109.5,0,0,0,2.14,21.57h0s5.77,47.12-17.63,75.25S1556.29,1142.84,1556.29,1142.84Zm-95.62,194.31a71.08,71.08,0,1,1,71.08-71.08A71.17,71.17,0,0,1,1460.67,1337.15Zm0-528.31a71.08,71.08,0,1,1,71.08-71.08A71.17,71.17,0,0,1,1460.67,808.84Zm264.15,122a71.08,71.08,0,1,1-71.08,71.08A71.15,71.15,0,0,1,1724.82,930.84Z" transform="translate(-172.39 -103.56)"/><path class="a" d="M631.39,1678.79v117a101.4,101.4,0,0,0,101.4,101.41h117v-119a99.38,99.38,0,0,0-99.38-99.39Z" transform="translate(-172.39 -103.56)"/><path class="a" d="M895.54,1414.64v119A99.39,99.39,0,0,0,994.93,1633h19.63a99.39,99.39,0,0,0,99.39-99.39v-119Z" transform="translate(-172.39 -103.56)"/><path class="a" d="M1159.7,1778.18v119h117a101.4,101.4,0,0,0,101.4-101.41v-117h-119A99.38,99.38,0,0,0,1159.7,1778.18Z" transform="translate(-172.39 -103.56)"/><path class="b" d="M863.82,1619.46c-22-25.44-16.38-71.56-15.48-77.89a110.18,110.18,0,0,0,1.45-17.73h0a109.2,109.2,0,0,0-109.2-109.2h0a109.2,109.2,0,0,0-109.2,109.2h0A109.2,109.2,0,0,0,740.59,1633h0a109.79,109.79,0,0,0,21.91-2.2h0s46.67-5.68,74.81,17.72,44.1,43.84,44.1,43.84c23,26.58,15.82,76.2,15.4,78.94v0l0,.1h0a109.82,109.82,0,0,0-1.25,16.52h0a109.21,109.21,0,0,0,109.21,109.21h0A109.21,109.21,0,0,0,1114,1788h0a109.56,109.56,0,0,0-2.55-23.42c-.78-9.35-2.67-48.56,17.83-73.2,23.4-28.13,43.84-44.11,43.84-44.11,27.35-23.66,78.76-15.56,78.76-15.56h0a109.13,109.13,0,0,0,17.07,1.34h0a109.2,109.2,0,0,0,109.2-109.2h0a109.2,109.2,0,0,0-109.2-109.2h0a109.2,109.2,0,0,0-109.2,109.2h0c0,7.48,1.9,21.65,1.9,21.65s5.77,47.12-17.63,75.26-43.84,44.1-43.84,44.1c-23.58,20.4-64.85,17-75.8,15.73a108.94,108.94,0,0,0-19.58-1.79h0a109.53,109.53,0,0,0-21.58,2.14h0s-47.11,5.77-75.25-17.63S863.82,1619.46,863.82,1619.46Zm-194.31-95.62a71.08,71.08,0,1,1,71.08,71.08A71.17,71.17,0,0,1,669.51,1523.84Zm528.31,0a71.08,71.08,0,1,1,71.08,71.08A71.17,71.17,0,0,1,1197.82,1523.84Zm-122,264.15a71.08,71.08,0,1,1-71.07-71.08A71.15,71.15,0,0,1,1075.82,1788Z" transform="translate(-172.39 -103.56)"/><text class="c" transform="translate(589.65 1046.85)">F</text><text class="c" transform="translate(786.65 1137.85)">T</text></svg>